<svg version="1.2" xmlns="http://www.w3.org/2000/svg" viewBox="0 0 400 400" width="400" height="400">
    <style>
        .a{fill:#065f46}.b{fill:#ef4444}.c{fill:#047857}.d{fill:#f97316}.e{fill:#f97316}.f{fill:#064e3b}.g{opacity:.19;fill:#064e3b}</style>
    <path fill-rule="evenodd" class="a"
        d="m299.5 46.5q12 10 25 19 30.2 25.5 46.5 62 3.9 9.3 6.5 19 4 21.8 8 43 0 3.5 0 7-0.5 0-1 0-42.9-38.6-101-32.5-12.5 0.9-24 4.5-0.5 0-1 0-18.2-10.9-37-21.5-33-25-68-47-67.6-32.5-121 19.5 6.6-14.8 17-27 16.2-17.6 34-33.5 1.9-1.7 3.5-0.5 0.6-2.1 1.5-4 8.7-7.2 19-12 2.1 0.2 4-0.5 21.2-10.6 43-17.5 57.6-11.2 113 7.5 16.1 6.8 32 14.5z" />
    <path fill-rule="evenodd" class="a"
        d="m299.5 46.5q-15.9-7.7-32-14.5-55.4-18.7-113-7.5 61.2-15.3 120 8.5 13 6 25 13.5z" />
    <path fill-rule="evenodd" class="a"
        d="m154.5 24.5q-21.8 6.9-43 17.5-1.9 0.7-4 0.5 21.8-13.1 47-18z" />
    <path fill-rule="evenodd" class="a" d="m299.5 46.5q13.8 7.8 25 19-13-9-25-19z" />
    <path fill-rule="evenodd" class="a"
        d="m88.5 54.5q-0.9 1.9-1.5 4-1.6-1.2-3.5 0.5-17.8 15.9-34 33.5 15.6-23.1 39-38z" />
    <path fill-rule="evenodd" class="b"
        d="m258.5 168.5q-10 3.1-20 6.5-29.7 13.3-60 25-38 14.5-78 7-19.9-5.2-36-17.5-21.6-24.8-38-53.5 1.1-2.6 1-5.5 1.3-6.1 5-11 53.4-52 121-19.5 35 22 68 47 18.8 10.6 37 21.5z" />
    <path fill-rule="evenodd" class="c"
        d="m27.5 130.5q0.1 2.9-1 5.5 16.4 28.7 38 53.5 32.8 40.1 76 68.5 12.9 8 27 13.5 41.3 18 86 9.5 17-3 34-6 41.3-6.8 74 18.5-8.1 14.1-19 26-27.6-15.2-59-10.5-13.4 2.1-26 7-30 15.9-60 32-31.1 15-65.5 16.5-6.3-0.3-12.5-0.5-7.6-1.5-15-3.5-70.3-43-88.5-124-4.7-24.8-2.5-50 0.8-4.6 3-9-1.3-2.9-1-6 3-21.5 12-41z" />
    <path fill-rule="evenodd" class="d"
        d="m384.5 196.5q-15.5 6.1-32 9.5-22.2 1.4-42-9-26.1-13.5-51-28.5 11.5-3.6 24-4.5 58.1-6.1 101 32.5z" />
    <path fill-rule="evenodd" class="a" d="m377.5 146.5q7.4 20.7 8 43-4-21.2-8-43z" />
    <path fill-rule="evenodd" class="e"
        d="m258.5 168.5q0.5 0 1 0 24.9 15 51 28.5 19.8 10.4 42 9 16.5-3.4 32-9.5 0.5 0 1 0 1.6 24.6-5 48-1.1 0.6-1.5 2-31-24.6-70.5-18.5-18.5 3.2-36 10-29.1 13.2-58 27-22.7 9.6-47 6.5-14.1-5.5-27-13.5-43.2-28.4-76-68.5 16.1 12.3 36 17.5 40 7.5 78-7 30.3-11.7 60-25 10-3.4 20-6.5z" />
    <path fill-rule="evenodd" class="c" d="m15.5 171.5q-0.3 3.1 1 6-2.2 4.4-3 9-0.3-7.9 2-15z" />
    <path fill-rule="evenodd" class="b"
        d="m380.5 244.5q-5.8 26-19 49-32.7-25.3-74-18.5-17 3-34 6-44.7 8.5-86-9.5 24.3 3.1 47-6.5 28.9-13.8 58-27 17.5-6.8 36-10 39.5-6.1 70.5 18.5 0.4-1.4 1.5-2z" />
    <path fill-rule="evenodd" class="f"
        d="m342.5 319.5q-35.7 44.6-91 60-4-0.1-7 2-0.5 0-1 0-22.4 3.4-45 4-19.6-0.5-39-3-30-5.3-55-22 7.4 2 15 3.5 6.3 0.3 12.5 0.5 34.4-1.5 65.5-16.5 30-16.1 60-32 12.6-4.9 26-7 31.4-4.7 59 10.5z" />
    <path fill-rule="evenodd" class="g" d="m251.5 379.5q-3 2.1-7 2 3-2.1 7-2z" />
    <path fill-rule="evenodd" class="f"
        d="m243.5 381.5q-41.9 11.3-84 1 19.4 2.5 39 3 22.6-0.6 45-4z" />
</svg>